<mxfile host="app.diagrams.net" agent="Mozilla/5.0 (Macintosh; Intel Mac OS X 10_15_7) AppleWebKit/605.1.15 (KHTML, like Gecko) Version/17.5 Safari/605.1.15" version="26.2.12">
  <diagram name="第 1 页" id="XrR6oJb-ZiE1guJITUTj">
    <mxGraphModel dx="542" dy="358" grid="1" gridSize="10" guides="1" tooltips="1" connect="1" arrows="1" fold="1" page="1" pageScale="1" pageWidth="827" pageHeight="1169" math="0" shadow="0">
      <root>
        <mxCell id="0" />
        <mxCell id="1" parent="0" />
        <mxCell id="Qftp_cy5Gg_HZMvoUiyC-4" value="" style="ellipse;whiteSpace=wrap;html=1;aspect=fixed;fillColor=#fff2cc;strokeColor=#d6b656;" vertex="1" parent="1">
          <mxGeometry x="490" y="1140" width="20" height="20" as="geometry" />
        </mxCell>
        <mxCell id="Qftp_cy5Gg_HZMvoUiyC-6" value="" style="ellipse;whiteSpace=wrap;html=1;aspect=fixed;fillColor=#dae8fc;strokeColor=#6c8ebf;" vertex="1" parent="1">
          <mxGeometry x="490" y="1110" width="20" height="20" as="geometry" />
        </mxCell>
        <mxCell id="Qftp_cy5Gg_HZMvoUiyC-7" style="rounded=0;orthogonalLoop=1;jettySize=auto;html=1;endArrow=none;startFill=0;entryX=0.5;entryY=1;entryDx=0;entryDy=0;" edge="1" parent="1" source="Qftp_cy5Gg_HZMvoUiyC-4" target="Qftp_cy5Gg_HZMvoUiyC-6">
          <mxGeometry relative="1" as="geometry">
            <mxPoint x="468" y="1185" as="sourcePoint" />
            <mxPoint x="502" y="1145" as="targetPoint" />
          </mxGeometry>
        </mxCell>
        <mxCell id="Qftp_cy5Gg_HZMvoUiyC-12" value="" style="endArrow=none;html=1;rounded=0;dashed=1;exitX=-0.037;exitY=-0.03;exitDx=0;exitDy=0;exitPerimeter=0;" edge="1" parent="1" source="Qftp_cy5Gg_HZMvoUiyC-47">
          <mxGeometry width="50" height="50" relative="1" as="geometry">
            <mxPoint x="360" y="1089.43" as="sourcePoint" />
            <mxPoint x="630" y="1090" as="targetPoint" />
          </mxGeometry>
        </mxCell>
        <mxCell id="Qftp_cy5Gg_HZMvoUiyC-13" value="" style="ellipse;shape=cloud;whiteSpace=wrap;html=1;" vertex="1" parent="1">
          <mxGeometry x="459" y="1032" width="88" height="40" as="geometry" />
        </mxCell>
        <mxCell id="Qftp_cy5Gg_HZMvoUiyC-15" value="&lt;font style=&quot;font-size: 16px;&quot;&gt;&lt;b&gt;...&lt;/b&gt;&lt;/font&gt;" style="text;html=1;align=center;verticalAlign=middle;whiteSpace=wrap;rounded=0;" vertex="1" parent="1">
          <mxGeometry x="510" y="1135" width="60" height="30" as="geometry" />
        </mxCell>
        <mxCell id="Qftp_cy5Gg_HZMvoUiyC-17" style="rounded=0;orthogonalLoop=1;jettySize=auto;html=1;endArrow=none;startFill=0;" edge="1" parent="1" source="Qftp_cy5Gg_HZMvoUiyC-18" target="Qftp_cy5Gg_HZMvoUiyC-21">
          <mxGeometry relative="1" as="geometry" />
        </mxCell>
        <mxCell id="Qftp_cy5Gg_HZMvoUiyC-18" value="" style="ellipse;whiteSpace=wrap;html=1;aspect=fixed;fillColor=#fff2cc;strokeColor=#d6b656;" vertex="1" parent="1">
          <mxGeometry x="380" y="1140" width="20" height="20" as="geometry" />
        </mxCell>
        <mxCell id="Qftp_cy5Gg_HZMvoUiyC-19" value="" style="ellipse;whiteSpace=wrap;html=1;aspect=fixed;fillColor=#fff2cc;strokeColor=#d6b656;" vertex="1" parent="1">
          <mxGeometry x="410" y="1140" width="20" height="20" as="geometry" />
        </mxCell>
        <mxCell id="Qftp_cy5Gg_HZMvoUiyC-20" value="" style="ellipse;whiteSpace=wrap;html=1;aspect=fixed;fillColor=#fff2cc;strokeColor=#d6b656;" vertex="1" parent="1">
          <mxGeometry x="440" y="1140" width="20" height="20" as="geometry" />
        </mxCell>
        <mxCell id="Qftp_cy5Gg_HZMvoUiyC-21" value="" style="ellipse;whiteSpace=wrap;html=1;aspect=fixed;fillColor=#dae8fc;strokeColor=#6c8ebf;" vertex="1" parent="1">
          <mxGeometry x="410" y="1110" width="20" height="20" as="geometry" />
        </mxCell>
        <mxCell id="Qftp_cy5Gg_HZMvoUiyC-22" style="rounded=0;orthogonalLoop=1;jettySize=auto;html=1;endArrow=none;startFill=0;entryX=0.5;entryY=1;entryDx=0;entryDy=0;" edge="1" parent="1" source="Qftp_cy5Gg_HZMvoUiyC-19" target="Qftp_cy5Gg_HZMvoUiyC-21">
          <mxGeometry relative="1" as="geometry">
            <mxPoint x="388" y="1185" as="sourcePoint" />
            <mxPoint x="422" y="1145" as="targetPoint" />
          </mxGeometry>
        </mxCell>
        <mxCell id="Qftp_cy5Gg_HZMvoUiyC-23" style="rounded=0;orthogonalLoop=1;jettySize=auto;html=1;endArrow=none;startFill=0;" edge="1" parent="1" source="Qftp_cy5Gg_HZMvoUiyC-20" target="Qftp_cy5Gg_HZMvoUiyC-21">
          <mxGeometry relative="1" as="geometry">
            <mxPoint x="435" y="1180" as="sourcePoint" />
            <mxPoint x="435" y="1150" as="targetPoint" />
          </mxGeometry>
        </mxCell>
        <mxCell id="Qftp_cy5Gg_HZMvoUiyC-25" style="rounded=0;orthogonalLoop=1;jettySize=auto;html=1;endArrow=none;startFill=0;" edge="1" parent="1" source="Qftp_cy5Gg_HZMvoUiyC-26" target="Qftp_cy5Gg_HZMvoUiyC-29">
          <mxGeometry relative="1" as="geometry" />
        </mxCell>
        <mxCell id="Qftp_cy5Gg_HZMvoUiyC-26" value="" style="ellipse;whiteSpace=wrap;html=1;aspect=fixed;fillColor=#fff2cc;strokeColor=#d6b656;" vertex="1" parent="1">
          <mxGeometry x="570" y="1140" width="20" height="20" as="geometry" />
        </mxCell>
        <mxCell id="Qftp_cy5Gg_HZMvoUiyC-27" value="" style="ellipse;whiteSpace=wrap;html=1;aspect=fixed;fillColor=#fff2cc;strokeColor=#d6b656;" vertex="1" parent="1">
          <mxGeometry x="610" y="1140" width="20" height="20" as="geometry" />
        </mxCell>
        <mxCell id="Qftp_cy5Gg_HZMvoUiyC-29" value="" style="ellipse;whiteSpace=wrap;html=1;aspect=fixed;fillColor=#dae8fc;strokeColor=#6c8ebf;" vertex="1" parent="1">
          <mxGeometry x="590" y="1110" width="20" height="20" as="geometry" />
        </mxCell>
        <mxCell id="Qftp_cy5Gg_HZMvoUiyC-30" style="rounded=0;orthogonalLoop=1;jettySize=auto;html=1;endArrow=none;startFill=0;" edge="1" parent="1" source="Qftp_cy5Gg_HZMvoUiyC-27" target="Qftp_cy5Gg_HZMvoUiyC-29">
          <mxGeometry relative="1" as="geometry">
            <mxPoint x="568" y="1185" as="sourcePoint" />
            <mxPoint x="602" y="1145" as="targetPoint" />
          </mxGeometry>
        </mxCell>
        <mxCell id="Qftp_cy5Gg_HZMvoUiyC-36" value="&lt;b&gt;云端节点&lt;/b&gt;" style="text;html=1;align=center;verticalAlign=middle;resizable=0;points=[];autosize=1;strokeColor=none;fillColor=none;" vertex="1" parent="1">
          <mxGeometry x="469" y="1037" width="70" height="30" as="geometry" />
        </mxCell>
        <mxCell id="Qftp_cy5Gg_HZMvoUiyC-47" value="&lt;b&gt;边端节点&lt;/b&gt;" style="text;html=1;align=center;verticalAlign=middle;resizable=0;points=[];autosize=1;strokeColor=none;fillColor=none;" vertex="1" parent="1">
          <mxGeometry x="344" y="1090" width="70" height="30" as="geometry" />
        </mxCell>
        <mxCell id="Qftp_cy5Gg_HZMvoUiyC-48" style="rounded=0;orthogonalLoop=1;jettySize=auto;html=1;endArrow=none;startFill=0;" edge="1" parent="1" source="Qftp_cy5Gg_HZMvoUiyC-21" target="Qftp_cy5Gg_HZMvoUiyC-36">
          <mxGeometry relative="1" as="geometry">
            <mxPoint x="453" y="1153" as="sourcePoint" />
            <mxPoint x="437" y="1137" as="targetPoint" />
          </mxGeometry>
        </mxCell>
        <mxCell id="Qftp_cy5Gg_HZMvoUiyC-49" style="rounded=0;orthogonalLoop=1;jettySize=auto;html=1;endArrow=none;startFill=0;entryX=0.467;entryY=0.977;entryDx=0;entryDy=0;entryPerimeter=0;" edge="1" parent="1" source="Qftp_cy5Gg_HZMvoUiyC-6" target="Qftp_cy5Gg_HZMvoUiyC-13">
          <mxGeometry relative="1" as="geometry">
            <mxPoint x="438" y="1124" as="sourcePoint" />
            <mxPoint x="501" y="1075" as="targetPoint" />
          </mxGeometry>
        </mxCell>
        <mxCell id="Qftp_cy5Gg_HZMvoUiyC-50" style="rounded=0;orthogonalLoop=1;jettySize=auto;html=1;endArrow=none;startFill=0;entryX=0.7;entryY=0.918;entryDx=0;entryDy=0;entryPerimeter=0;" edge="1" parent="1" source="Qftp_cy5Gg_HZMvoUiyC-29" target="Qftp_cy5Gg_HZMvoUiyC-13">
          <mxGeometry relative="1" as="geometry">
            <mxPoint x="511" y="1120" as="sourcePoint" />
            <mxPoint x="517" y="1079" as="targetPoint" />
          </mxGeometry>
        </mxCell>
      </root>
    </mxGraphModel>
  </diagram>
</mxfile>
